<?xml version="1.0" encoding="UTF-8" standalone="no"?>
<svg
   width="352"
   height="48"
   viewBox="0 0 352 48"
   fill="none"
   version="1.1"
   id="svg1"
   sodipodi:docname="lg3.svg"
   inkscape:version="1.4 (e7c3feb1, 2024-10-09)"
   xmlns:inkscape="http://www.inkscape.org/namespaces/inkscape"
   xmlns:sodipodi="http://sodipodi.sourceforge.net/DTD/sodipodi-0.dtd"
   xmlns="http://www.w3.org/2000/svg"
   xmlns:svg="http://www.w3.org/2000/svg">
  <sodipodi:namedview
     id="namedview1"
     pagecolor="#505050"
     bordercolor="#eeeeee"
     borderopacity="1"
     inkscape:showpageshadow="0"
     inkscape:pageopacity="0"
     inkscape:pagecheckerboard="0"
     inkscape:deskcolor="#505050"
     inkscape:zoom="1.7379513"
     inkscape:cx="134.35359"
     inkscape:cy="137.23055"
     inkscape:window-width="1728"
     inkscape:window-height="1080"
     inkscape:window-x="0"
     inkscape:window-y="37"
     inkscape:window-maximized="0"
     inkscape:current-layer="g93" />
  <defs
     id="defs1">
    <clipPath
       id="clip0_73_183">
      <rect
         width="352"
         height="48"
         fill="white"
         id="rect1" />
    </clipPath>
  </defs>
  <g
     id="g93"
     style="fill:#000000"
     transform="matrix(0.6990853,0,0,0.62123546,-169.22372,-267.63175)">
	<path
   style="fill:#000000"
   d="m 362.505,570.316 v -29.623 h 13.848 c 2.786,0 4.901,0.269 6.349,0.8 1.447,0.531 2.604,1.469 3.476,2.814 0.865,1.352 1.295,2.842 1.295,4.469 0,2.104 -0.713,3.869 -2.153,5.311 -1.433,1.441 -3.651,2.359 -6.648,2.752 1.099,0.496 1.928,0.986 2.495,1.476 1.207,1.048 2.349,2.366 3.433,3.938 l 5.433,8.063 h -5.2 l -4.131,-6.166 c -1.207,-1.772 -2.204,-3.138 -2.989,-4.076 -0.778,-0.945 -1.477,-1.607 -2.095,-1.979 -0.619,-0.379 -1.244,-0.641 -1.884,-0.793 -0.473,-0.09 -1.237,-0.138 -2.306,-0.138 h -4.793 v 13.152 z m 4.131,-16.546 h 8.888 c 1.884,0 3.367,-0.186 4.43,-0.559 1.069,-0.372 1.876,-0.965 2.429,-1.779 0.553,-0.814 0.829,-1.696 0.829,-2.655 0,-1.4 -0.531,-2.552 -1.607,-3.455 -1.069,-0.904 -2.764,-1.352 -5.084,-1.352 h -9.884 v 9.8 z m 30.072,16.546 v -29.623 h 22.583 v 3.497 h -18.452 v 9.07 h 17.281 v 3.476 h -17.281 v 10.084 h 19.179 v 3.497 h -23.31 z m 28.254,0 12.001,-29.623 h 4.451 l 12.786,29.623 h -4.713 l -3.644,-8.973 H 432.78 l -3.426,8.973 z m 9.011,-12.166 h 10.597 l -3.266,-8.201 c -0.989,-2.49 -1.731,-4.538 -2.211,-6.145 -0.4,1.904 -0.961,3.786 -1.688,5.662 z m 26.02,12.166 v -29.623 h 4.138 v 26.126 h 15.383 v 3.497 z m 31.825,0 V 544.19 h -10.292 v -3.497 h 24.757 v 3.497 h -10.335 v 26.126 z m 19.329,-14.428 c 0,-4.918 1.389,-8.766 4.175,-11.546 2.786,-2.779 6.378,-4.173 10.785,-4.173 2.88,0 5.484,0.655 7.797,1.959 2.313,1.31 4.08,3.131 5.294,5.469 1.215,2.331 1.819,4.987 1.819,7.945 0,3.007 -0.633,5.697 -1.913,8.063 -1.28,2.373 -3.091,4.166 -5.433,5.386 -2.349,1.221 -4.873,1.828 -7.586,1.828 -2.945,0 -5.571,-0.669 -7.884,-2.021 -2.32,-1.345 -4.073,-3.187 -5.266,-5.518 -1.191,-2.323 -1.788,-4.792 -1.788,-7.392 z m 4.262,0.062 c 0,3.573 1.011,6.38 3.033,8.436 2.029,2.055 4.567,3.083 7.622,3.083 3.113,0 5.673,-1.035 7.68,-3.111 2.008,-2.076 3.018,-5.021 3.018,-8.835 0,-2.407 -0.436,-4.51 -1.295,-6.311 -0.858,-1.8 -2.116,-3.193 -3.767,-4.186 -1.659,-0.987 -3.513,-1.483 -5.571,-1.483 -2.932,0 -5.448,0.952 -7.557,2.862 -2.108,1.903 -3.163,5.089 -3.163,9.545 z m 33.672,14.366 v -29.623 h 13.849 c 2.785,0 4.901,0.269 6.349,0.8 1.447,0.531 2.604,1.469 3.476,2.814 0.866,1.352 1.295,2.842 1.295,4.469 0,2.104 -0.713,3.869 -2.153,5.311 -1.433,1.441 -3.651,2.359 -6.648,2.752 1.099,0.496 1.928,0.986 2.495,1.476 1.207,1.048 2.349,2.366 3.433,3.938 l 5.433,8.063 h -5.2 l -4.131,-6.166 c -1.207,-1.772 -2.204,-3.138 -2.989,-4.076 -0.779,-0.945 -1.477,-1.607 -2.095,-1.979 -0.618,-0.379 -1.244,-0.641 -1.884,-0.793 -0.473,-0.09 -1.237,-0.138 -2.306,-0.138 h -4.793 v 13.152 z m 4.131,-16.546 h 8.888 c 1.884,0 3.367,-0.186 4.43,-0.559 1.069,-0.372 1.876,-0.965 2.429,-1.779 0.552,-0.814 0.829,-1.696 0.829,-2.655 0,-1.4 -0.531,-2.552 -1.607,-3.455 -1.069,-0.904 -2.764,-1.352 -5.084,-1.352 h -9.884 v 9.8 z m 28.581,7.029 3.898,-0.324 c 0.182,1.483 0.611,2.697 1.287,3.648 0.676,0.952 1.723,1.717 3.142,2.304 1.418,0.586 3.018,0.876 4.793,0.876 1.579,0 2.967,-0.22 4.175,-0.662 1.207,-0.449 2.109,-1.056 2.698,-1.828 0.589,-0.779 0.887,-1.621 0.887,-2.538 0,-0.931 -0.284,-1.738 -0.858,-2.435 -0.567,-0.697 -1.505,-1.276 -2.807,-1.745 -0.844,-0.31 -2.691,-0.793 -5.564,-1.448 -2.866,-0.655 -4.881,-1.269 -6.03,-1.849 -1.491,-0.738 -2.604,-1.662 -3.338,-2.758 -0.727,-1.097 -1.091,-2.325 -1.091,-3.69 0,-1.49 0.444,-2.89 1.339,-4.187 0.894,-1.304 2.204,-2.29 3.92,-2.965 1.724,-0.669 3.63,-1.007 5.732,-1.007 2.32,0 4.357,0.352 6.131,1.062 1.768,0.703 3.128,1.745 4.08,3.117 0.945,1.373 1.463,2.931 1.535,4.67 l -3.964,0.283 c -0.218,-1.869 -0.938,-3.29 -2.168,-4.242 -1.229,-0.958 -3.04,-1.435 -5.44,-1.435 -2.502,0 -4.32,0.435 -5.469,1.304 -1.143,0.869 -1.717,1.917 -1.717,3.138 0,1.069 0.407,1.945 1.215,2.628 0.801,0.69 2.873,1.393 6.233,2.11 3.36,0.725 5.665,1.352 6.917,1.89 1.818,0.8 3.163,1.807 4.029,3.021 0.865,1.221 1.294,2.628 1.294,4.214 0,1.579 -0.473,3.062 -1.425,4.455 -0.953,1.393 -2.32,2.476 -4.102,3.255 -1.782,0.773 -3.789,1.159 -6.015,1.159 -2.829,0 -5.2,-0.386 -7.105,-1.173 -1.913,-0.78 -3.412,-1.952 -4.502,-3.525 -1.085,-1.565 -1.659,-3.344 -1.71,-5.323 z m 47.071,-20.793 c 1.668,0 3.292,0.408 4.88,1.216 1.588,0.808 2.817,1.965 3.705,3.471 0.889,1.514 1.329,3.08 1.329,4.721 0,1.617 -0.44,3.173 -1.31,4.671 -0.87,1.497 -2.09,2.654 -3.669,3.488 -1.57,0.826 -3.211,1.234 -4.934,1.234 -1.714,0 -3.355,-0.408 -4.934,-1.234 -1.57,-0.834 -2.79,-1.991 -3.669,-3.488 -0.88,-1.498 -1.319,-3.054 -1.319,-4.671 0,-1.641 0.449,-3.207 1.337,-4.721 0.888,-1.506 2.126,-2.663 3.714,-3.471 1.587,-0.808 3.21,-1.216 4.87,-1.216 z m 0,1.556 c -1.391,0 -2.745,0.34 -4.064,1.012 -1.319,0.681 -2.35,1.651 -3.095,2.91 -0.744,1.259 -1.112,2.569 -1.112,3.93 0,1.353 0.359,2.655 1.095,3.896 0.726,1.242 1.749,2.203 3.068,2.901 1.31,0.689 2.683,1.037 4.109,1.037 1.435,0 2.799,-0.349 4.118,-1.037 1.309,-0.698 2.332,-1.659 3.059,-2.901 0.727,-1.242 1.094,-2.543 1.094,-3.896 0,-1.361 -0.376,-2.671 -1.112,-3.93 -0.745,-1.259 -1.777,-2.229 -3.095,-2.91 -1.32,-0.671 -2.674,-1.012 -4.065,-1.012 z m -4.351,13.05 v -10.124 h 3.669 c 1.256,0 2.162,0.094 2.718,0.281 0.565,0.187 1.014,0.519 1.346,0.978 0.332,0.468 0.494,0.962 0.494,1.489 0,0.732 -0.279,1.378 -0.834,1.931 -0.556,0.544 -1.292,0.85 -2.207,0.918 0.377,0.153 0.673,0.332 0.906,0.536 0.43,0.4 0.951,1.063 1.579,2.007 l 1.301,1.982 h -2.108 l -0.942,-1.599 c -0.744,-1.251 -1.346,-2.042 -1.803,-2.357 -0.314,-0.23 -0.771,-0.349 -1.382,-0.349 h -1.014 v 4.305 h -1.723 z m 1.723,-5.699 h 2.09 c 1.005,0 1.687,-0.136 2.045,-0.426 0.368,-0.281 0.547,-0.655 0.547,-1.114 0,-0.306 -0.089,-0.57 -0.26,-0.808 -0.18,-0.238 -0.422,-0.409 -0.736,-0.527 -0.305,-0.119 -0.888,-0.179 -1.722,-0.179 h -1.965 v 3.054 z"
   id="path92" />

	<path
   style="fill:#000000"
   d="m 293.995,432.66339 v 14.411 h -3.161 c -5.731,0 -10.767,1.234 -15.107,3.702 -4.341,2.468 -7.396,6.39 -9.166,11.767 -0.59,2.645 -0.885,5.068 -0.885,7.272 0,4.583 1.221,8.77 3.666,12.56 2.444,3.79 5.858,6.567 10.24,8.329 3.709,1.146 7.164,1.719 10.367,1.719 h 3.666 v 14.543 c -0.927,0.088 -1.812,0.154 -2.654,0.199 -0.843,0.044 -1.812,0.066 -2.908,0.066 -10.029,0 -18.879,-3.526 -26.548,-10.577 -7.67,-7.051 -11.505,-15.689 -11.505,-25.914 v -3.173 c 0,-8.021 2.655,-15.226 7.944,-21.617 5.31,-6.39 11.883,-10.555 19.785,-12.494 1.938,-0.176 3.983,-0.353 6.089,-0.529 2.128,-0.176 4.024,-0.264 5.731,-0.264 z m 17.825,0.264 h 15.171 c 5.478,0 10.346,2.181 14.602,6.544 4.257,4.364 6.385,9.321 6.385,14.874 0,2.644 -0.506,5.244 -1.518,7.8 -1.264,2.556 -2.865,4.716 -4.803,6.478 -1.939,1.763 -4.341,3.349 -7.206,4.76 l 18.331,33.582 h -17.299 l -16.456,-32.26 -0.505,-3.438 c 0,-3.261 1.77,-5.685 5.31,-7.272 3.54,-1.586 5.963,-2.799 7.269,-3.636 1.306,-0.837 1.96,-2.534 1.96,-5.09 0,-1.763 -0.443,-3.305 -1.327,-4.628 -0.885,-1.322 -2.17,-2.6 -3.856,-3.834 h -9.988 v 60.157 h -14.665 v -64.652 c 0.422,-2.379 1.412,-4.429 2.971,-6.148 1.558,-1.716 3.433,-2.796 5.624,-3.237 z m 44.375,-0.528 h 16.329 l 10.388,25.804 11.336,-25.804 h 15.676 l -20.227,43.895 v 30.674 h -14.159 v -31.467 c -2.613,-6.523 -5.12,-12.428 -7.522,-17.717 -2.403,-5.289 -6.343,-13.75 -11.821,-25.385 z m 73.198,0 h 25.158 v 14.675 l -21.365,0.264 v 13.089 h 20.227 v 14.411 l -20.227,0.397 v 16.791 l 21.365,0.132 v 14.808 l -26.549,-0.132 c -2.866,-0.352 -5.183,-1.653 -6.953,-3.901 -1.77,-2.247 -2.655,-4.914 -2.655,-7.999 v -49.58 c 0,-5.377 2.612,-9.475 7.838,-12.296 1.012,-0.174 2.065,-0.395 3.161,-0.659 z m 35.651,43.498 h 24.147 v 14.411 h -24.147 z m 36.536,-42.97 h 14.792 v 59.893 h 20.986 v 14.147 H 510.81 c -2.191,0 -4.003,-0.749 -5.436,-2.248 -1.433,-1.498 -2.697,-3.526 -3.793,-6.082 v -65.71 z m 56.005,-0.528 h 25.158 v 14.675 l -21.365,0.264 v 13.089 h 20.227 v 14.411 l -20.227,0.397 v 16.791 l 21.365,0.132 v 14.808 l -26.549,-0.132 c -2.866,-0.352 -5.183,-1.653 -6.953,-3.901 -1.77,-2.247 -2.655,-4.914 -2.655,-7.999 v -49.58 c 0,-5.377 2.612,-9.475 7.838,-12.296 1.013,-0.174 2.066,-0.395 3.161,-0.659 z m 36.284,0.528 h 15.171 v 74.304 h -15.171 z m 28.824,-0.264 h 14.792 v 74.304 h -14.792 z m 35.398,0.397 h 17.952 l -22.883,35.697 24.147,38.21 H 658.85 l -18.584,-30.299 c -0.59,-1.146 -1.138,-2.292 -1.644,-3.46 -0.505,-1.146 -0.758,-2.556 -0.758,-4.231 l 0.442,-3.173 z m 39.317,-0.661 h 25.158 v 14.675 l -21.365,0.264 v 13.089 h 20.227 v 14.411 l -20.227,0.397 v 16.791 l 21.365,0.132 v 14.808 l -26.549,-0.132 c -2.866,-0.352 -5.183,-1.653 -6.953,-3.901 -1.77,-2.247 -2.655,-4.914 -2.655,-7.999 v -49.58 c 0,-5.377 2.613,-9.475 7.838,-12.296 1.013,-0.174 2.066,-0.395 3.161,-0.659 z m 49.51811,56.40401 c 1.939,0.353 0.22989,2.65199 1.36789,4.36999 1.138,1.741 1.706,3.724 1.706,5.95 0,0.705 -0.063,1.41 -0.189,2.116 -0.127,0.727 -0.358,1.609 -0.695,2.688 l -2.42966,6.40304 10.70776,5.37761 -3.33301,-9.81402 c -3.455,-2.292 -2.42602,0.54628 -2.42602,-3.06772 0,-1.675 -2.49431,-0.70714 -1.35631,-2.33814 1.137,-1.631 4.38283,3.92953 5.73083,3.40153 1.348,-0.529 -6.67389,-17.7976 -6.25504,-17.08666 l 1.8278,3.10247 z"
   id="path93"
   sodipodi:nodetypes="ccsccsccscccscsscccsccsssccccccccssccccccccccccccccccccccccccccccccssccccccccccccscccccccccccccccccsscccccccccccccccccccccccccccccccccccssccccscccccsccscc" />

</g>
</svg>
