<?xml version="1.0" encoding="UTF-8" standalone="no"?>
<svg
   width="352"
   height="48"
   viewBox="0 0 352 48"
   fill="none"
   version="1.1"
   id="svg1"
   sodipodi:docname="lg3.svg"
   inkscape:version="1.4 (e7c3feb1, 2024-10-09)"
   xmlns:inkscape="http://www.inkscape.org/namespaces/inkscape"
   xmlns:sodipodi="http://sodipodi.sourceforge.net/DTD/sodipodi-0.dtd"
   xmlns="http://www.w3.org/2000/svg"
   xmlns:svg="http://www.w3.org/2000/svg">
  <sodipodi:namedview
     id="namedview1"
     pagecolor="#505050"
     bordercolor="#eeeeee"
     borderopacity="1"
     inkscape:showpageshadow="0"
     inkscape:pageopacity="0"
     inkscape:pagecheckerboard="0"
     inkscape:deskcolor="#505050"
     inkscape:zoom="3.9924803"
     inkscape:cx="260.114"
     inkscape:cy="94.302282"
     inkscape:window-width="1728"
     inkscape:window-height="1080"
     inkscape:window-x="0"
     inkscape:window-y="37"
     inkscape:window-maximized="0"
     inkscape:current-layer="g93" />
  <defs
     id="defs1">
    <clipPath
       id="clip0_73_183">
      <rect
         width="352"
         height="48"
         fill="white"
         id="rect1" />
    </clipPath>
  </defs>
  <g
     id="g93"
     style="fill:#000000"
     transform="matrix(0.6990853,0,0,0.62123546,-169.22372,-267.63175)">
	
	<path
   style="fill:#000000"
   d="m 293.995,432.66339 v 14.411 h -3.161 c -5.731,0 -10.767,1.234 -15.107,3.702 -4.341,2.468 -7.396,6.39 -9.166,11.767 -0.59,2.645 -0.885,5.068 -0.885,7.272 0,4.583 1.221,8.77 3.666,12.56 2.444,3.79 5.858,6.567 10.24,8.329 3.709,1.146 7.164,1.719 10.367,1.719 h 3.666 v 14.543 c -0.927,0.088 -1.812,0.154 -2.654,0.199 -0.843,0.044 -1.812,0.066 -2.908,0.066 -10.029,0 -18.879,-3.526 -26.548,-10.577 -7.67,-7.051 -11.505,-15.689 -11.505,-25.914 v -3.173 c 0,-8.021 2.655,-15.226 7.944,-21.617 5.31,-6.39 11.883,-10.555 19.785,-12.494 1.938,-0.176 3.983,-0.353 6.089,-0.529 2.128,-0.176 4.024,-0.264 5.731,-0.264 z m 17.825,0.264 h 15.171 c 5.478,0 10.346,2.181 14.602,6.544 4.257,4.364 6.385,9.321 6.385,14.874 0,2.644 -0.506,5.244 -1.518,7.8 -1.264,2.556 -2.865,4.716 -4.803,6.478 -1.939,1.763 -4.341,3.349 -7.206,4.76 l 18.331,33.582 h -17.299 l -16.456,-32.26 -0.505,-3.438 c 0,-3.261 1.77,-5.685 5.31,-7.272 3.54,-1.586 5.963,-2.799 7.269,-3.636 1.306,-0.837 1.96,-2.534 1.96,-5.09 0,-1.763 -0.443,-3.305 -1.327,-4.628 -0.885,-1.322 -2.17,-2.6 -3.856,-3.834 h -9.988 v 60.157 h -14.665 v -64.652 c 0.422,-2.379 1.412,-4.429 2.971,-6.148 1.558,-1.716 3.433,-2.796 5.624,-3.237 z m 44.375,-0.528 h 16.329 l 10.388,25.804 11.336,-25.804 h 15.676 l -20.227,43.895 v 30.674 h -14.159 v -31.467 c -2.613,-6.523 -5.12,-12.428 -7.522,-17.717 -2.403,-5.289 -6.343,-13.75 -11.821,-25.385 z m 73.198,0 h 25.158 v 14.675 l -21.365,0.264 v 13.089 h 20.227 v 14.411 l -20.227,0.397 v 16.791 l 21.365,0.132 v 14.808 l -26.549,-0.132 c -2.866,-0.352 -5.183,-1.653 -6.953,-3.901 -1.77,-2.247 -2.655,-4.914 -2.655,-7.999 v -49.58 c 0,-5.377 2.612,-9.475 7.838,-12.296 1.012,-0.174 2.065,-0.395 3.161,-0.659 z m 35.651,43.498 h 24.147 v 14.411 h -24.147 z m 36.536,-42.97 h 14.792 v 59.893 h 20.986 v 14.147 H 510.81 c -2.191,0 -4.003,-0.749 -5.436,-2.248 -1.433,-1.498 -2.697,-3.526 -3.793,-6.082 v -65.71 z m 56.005,-0.528 h 25.158 v 14.675 l -21.365,0.264 v 13.089 h 20.227 v 14.411 l -20.227,0.397 v 16.791 l 21.365,0.132 v 14.808 l -26.549,-0.132 c -2.866,-0.352 -5.183,-1.653 -6.953,-3.901 -1.77,-2.247 -2.655,-4.914 -2.655,-7.999 v -49.58 c 0,-5.377 2.612,-9.475 7.838,-12.296 1.013,-0.174 2.066,-0.395 3.161,-0.659 z m 36.284,0.528 h 15.171 v 74.304 h -15.171 z m 28.824,-0.264 h 14.792 v 74.304 h -14.792 z m 35.398,0.397 h 17.952 l -22.883,35.697 24.147,38.21 H 658.85 l -18.584,-30.299 c -0.59,-1.146 -1.138,-2.292 -1.644,-3.46 -0.505,-1.146 -0.758,-2.556 -0.758,-4.231 l 0.442,-3.173 z m 39.317,-0.661 h 25.158 v 14.675 l -21.365,0.264 v 13.089 h 20.227 v 14.411 l -20.227,0.397 v 16.791 l 21.365,0.132 v 14.808 l -26.549,-0.132 c -2.866,-0.352 -5.183,-1.653 -6.953,-3.901 -1.77,-2.247 -2.655,-4.914 -2.655,-7.999 v -49.58 c 0,-5.377 2.613,-9.475 7.838,-12.296 1.013,-0.174 2.066,-0.395 3.161,-0.659 z m 38.45709,122.94628 c 0,0 -0.19778,0.82345 0,0 z"
   id="path93"
   sodipodi:nodetypes="ccsccsccscccscsscccsccsssccccccccssccccccccccccccccccccccccccccccccssccccccccccccscccccccccccccccccsscccccccccccccccccccccccccccccccccccssccss" />

</g>
</svg>
